<?xml version="1.0" encoding="UTF-8" standalone="no"?>
<!DOCTYPE svg PUBLIC "-//W3C//DTD SVG 1.1//EN" "http://www.w3.org/Graphics/SVG/1.1/DTD/svg11.dtd">
<svg width="100%" height="100%" viewBox="0 0 1900 1900" version="1.1" xmlns="http://www.w3.org/2000/svg" xmlns:xlink="http://www.w3.org/1999/xlink" xml:space="preserve" xmlns:serif="http://www.serif.com/" style="fill-rule:evenodd;clip-rule:evenodd;stroke-linejoin:round;stroke-miterlimit:2;">
    <circle cx="950" cy="950" r="950" style="fill:rgb(125,42,231);"/>
    <circle cx="950" cy="950" r="950" style="fill:url(#_Radial1);"/>
    <circle cx="950" cy="950" r="950" style="fill:url(#_Radial2);"/>
    <circle cx="950" cy="950" r="950" style="fill:url(#_Radial3);"/>
    <circle cx="950" cy="950" r="950" style="fill:url(#_Radial4);"/>
    <g transform="matrix(163.419,-1.40084,1.40084,163.419,509.025,1588)">
        <path d="M2.352,0.156C1.952,0.156 1.586,0.098 1.254,-0.018C0.922,-0.134 0.658,-0.298 0.462,-0.51C0.266,-0.722 0.168,-0.964 0.168,-1.236C0.168,-1.428 0.214,-1.592 0.306,-1.728C0.398,-1.864 0.516,-1.932 0.66,-1.932C0.756,-1.932 0.856,-1.896 0.96,-1.824C1.168,-1.632 1.432,-1.474 1.752,-1.35C2.072,-1.226 2.404,-1.164 2.748,-1.164C3.228,-1.164 3.616,-1.26 3.912,-1.452C4.208,-1.644 4.356,-1.896 4.356,-2.208C4.356,-2.488 4.234,-2.698 3.99,-2.838C3.746,-2.978 3.34,-3.116 2.772,-3.252C2.076,-3.42 1.53,-3.638 1.134,-3.906C0.738,-4.174 0.54,-4.584 0.54,-5.136C0.54,-5.56 0.664,-5.974 0.912,-6.378C1.16,-6.782 1.516,-7.114 1.98,-7.374C2.444,-7.634 2.976,-7.764 3.576,-7.764C4.12,-7.764 4.576,-7.674 4.944,-7.494C5.312,-7.314 5.496,-7.076 5.496,-6.78C5.496,-6.628 5.454,-6.492 5.37,-6.372C5.286,-6.252 5.184,-6.156 5.064,-6.084C4.944,-6.012 4.836,-5.976 4.74,-5.976C4.66,-5.976 4.552,-6.012 4.416,-6.084C4.192,-6.204 3.944,-6.298 3.672,-6.366C3.4,-6.434 3.156,-6.468 2.94,-6.468C2.556,-6.468 2.24,-6.384 1.992,-6.216C1.744,-6.048 1.62,-5.844 1.62,-5.604C1.62,-5.348 1.774,-5.134 2.082,-4.962C2.39,-4.79 2.944,-4.608 3.744,-4.416C4.328,-4.256 4.762,-4.046 5.046,-3.786C5.33,-3.526 5.472,-3.14 5.472,-2.628C5.472,-2.14 5.34,-1.682 5.076,-1.254C4.812,-0.826 4.444,-0.484 3.972,-0.228C3.5,0.028 2.96,0.156 2.352,0.156Z" style="fill:white;fill-rule:nonzero;"/>
    </g>
    <defs>
        <radialGradient id="_Radial1" cx="0" cy="0" r="1" gradientUnits="userSpaceOnUse" gradientTransform="matrix(955.995,-1116.01,1116.01,955.995,367.009,1684.01)"><stop offset="0" style="stop-color:rgb(100,32,255);stop-opacity:1"/><stop offset="1" style="stop-color:rgb(100,32,255);stop-opacity:0"/></radialGradient>
        <radialGradient id="_Radial2" cx="0" cy="0" r="1" gradientUnits="userSpaceOnUse" gradientTransform="matrix(957.509,1352.49,-1352.49,957.509,502.997,215.996)"><stop offset="0" style="stop-color:rgb(0,196,204);stop-opacity:1"/><stop offset="1" style="stop-color:rgb(0,196,204);stop-opacity:0"/></radialGradient>
        <radialGradient id="_Radial3" cx="0" cy="0" r="1" gradientUnits="userSpaceOnUse" gradientTransform="matrix(1023,-1030,473.711,470.491,367,1684)"><stop offset="0" style="stop-color:rgb(100,32,255);stop-opacity:1"/><stop offset="1" style="stop-color:rgb(100,32,255);stop-opacity:0"/></radialGradient>
        <radialGradient id="_Radial4" cx="0" cy="0" r="1" gradientUnits="userSpaceOnUse" gradientTransform="matrix(595.999,1372,-2298.41,998.431,777,256)"><stop offset="0" style="stop-color:rgb(0,196,204);stop-opacity:0.73"/><stop offset="0" style="stop-color:rgb(0,196,204);stop-opacity:1"/><stop offset="1" style="stop-color:rgb(0,196,204);stop-opacity:0"/></radialGradient>
    </defs>
</svg>
