<?xml version="1.0" encoding="UTF-8"?>
<svg xmlns="http://www.w3.org/2000/svg" xmlns:xlink="http://www.w3.org/1999/xlink" width="17px" height="17px" viewBox="0 0 17 17" version="1.1">
<defs>
<radialGradient id="radial0" gradientUnits="userSpaceOnUse" cx="0" cy="0" fx="0" fy="0" r="1" gradientTransform="matrix(8.553639,-9.985353,9.985353,8.553639,3.283765,15.067458)">
<stop offset="0" style="stop-color:rgb(39.215686%,12.54902%,100%);stop-opacity:1;"/>
<stop offset="1" style="stop-color:rgb(39.215686%,12.54902%,100%);stop-opacity:0;"/>
</radialGradient>
<radialGradient id="radial1" gradientUnits="userSpaceOnUse" cx="0" cy="0" fx="0" fy="0" r="1" gradientTransform="matrix(8.567186,12.101226,-12.101226,8.567186,4.500499,1.932596)">
<stop offset="0" style="stop-color:rgb(0%,76.862745%,80%);stop-opacity:1;"/>
<stop offset="1" style="stop-color:rgb(0%,76.862745%,80%);stop-opacity:0;"/>
</radialGradient>
<radialGradient id="radial2" gradientUnits="userSpaceOnUse" cx="0" cy="0" fx="0" fy="0" r="1" gradientTransform="matrix(9.153158,-9.215789,4.238467,4.209656,3.283684,15.067368)">
<stop offset="0" style="stop-color:rgb(39.215686%,12.54902%,100%);stop-opacity:1;"/>
<stop offset="1" style="stop-color:rgb(39.215686%,12.54902%,100%);stop-opacity:0;"/>
</radialGradient>
<radialGradient id="radial3" gradientUnits="userSpaceOnUse" cx="0" cy="0" fx="0" fy="0" r="1" gradientTransform="matrix(5.332623,12.275789,-20.564721,8.93333,6.952105,2.290526)">
<stop offset="0" style="stop-color:rgb(0%,76.862745%,80%);stop-opacity:0.729412;"/>
<stop offset="0" style="stop-color:rgb(0%,76.862745%,80%);stop-opacity:1;"/>
<stop offset="1" style="stop-color:rgb(0%,76.862745%,80%);stop-opacity:0;"/>
</radialGradient>
</defs>
<g id="surface1">
<path style=" stroke:none;fill-rule:evenodd;fill:rgb(49.019608%,16.470588%,90.588235%);fill-opacity:1;" d="M 17 8.5 C 17 13.195312 13.195312 17 8.5 17 C 3.804688 17 0 13.195312 0 8.5 C 0 3.804688 3.804688 0 8.5 0 C 13.195312 0 17 3.804688 17 8.5 Z M 17 8.5 "/>
<path style=" stroke:none;fill-rule:evenodd;fill:url(#radial0);" d="M 17 8.5 C 17 13.195312 13.195312 17 8.5 17 C 3.804688 17 0 13.195312 0 8.5 C 0 3.804688 3.804688 0 8.5 0 C 13.195312 0 17 3.804688 17 8.5 Z M 17 8.5 "/>
<path style=" stroke:none;fill-rule:evenodd;fill:url(#radial1);" d="M 17 8.5 C 17 13.195312 13.195312 17 8.5 17 C 3.804688 17 0 13.195312 0 8.5 C 0 3.804688 3.804688 0 8.5 0 C 13.195312 0 17 3.804688 17 8.5 Z M 17 8.5 "/>
<path style=" stroke:none;fill-rule:evenodd;fill:url(#radial2);" d="M 17 8.5 C 17 13.195312 13.195312 17 8.5 17 C 3.804688 17 0 13.195312 0 8.5 C 0 3.804688 3.804688 0 8.5 0 C 13.195312 0 17 3.804688 17 8.5 Z M 17 8.5 "/>
<path style=" stroke:none;fill-rule:evenodd;fill:url(#radial3);" d="M 17 8.5 C 17 13.195312 13.195312 17 8.5 17 C 3.804688 17 0 13.195312 0 8.5 C 0 3.804688 3.804688 0 8.5 0 C 13.195312 0 17 3.804688 17 8.5 Z M 17 8.5 "/>
<path style=" stroke:none;fill-rule:nonzero;fill:rgb(100%,100%,100%);fill-opacity:1;" d="M 7.996094 14.40625 C 7.410156 14.410156 6.875 14.332031 6.386719 14.167969 C 5.902344 14 5.511719 13.765625 5.222656 13.457031 C 4.933594 13.148438 4.789062 12.796875 4.785156 12.398438 C 4.78125 12.117188 4.847656 11.878906 4.980469 11.679688 C 5.113281 11.476562 5.285156 11.378906 5.496094 11.375 C 5.636719 11.375 5.78125 11.425781 5.933594 11.53125 C 6.242188 11.808594 6.628906 12.035156 7.097656 12.210938 C 7.570312 12.390625 8.054688 12.476562 8.558594 12.472656 C 9.257812 12.464844 9.824219 12.320312 10.257812 12.035156 C 10.6875 11.75 10.898438 11.382812 10.894531 10.925781 C 10.890625 10.515625 10.710938 10.210938 10.351562 10.007812 C 9.996094 9.808594 9.398438 9.609375 8.566406 9.417969 C 7.546875 9.183594 6.746094 8.871094 6.164062 8.484375 C 5.582031 8.097656 5.285156 7.5 5.28125 6.691406 C 5.273438 6.070312 5.449219 5.464844 5.808594 4.871094 C 6.164062 4.277344 6.683594 3.789062 7.355469 3.402344 C 8.03125 3.015625 8.808594 2.820312 9.6875 2.8125 C 10.480469 2.804688 11.148438 2.929688 11.691406 3.1875 C 12.230469 3.449219 12.5 3.792969 12.503906 4.226562 C 12.507812 4.449219 12.449219 4.648438 12.328125 4.824219 C 12.207031 5 12.058594 5.140625 11.882812 5.25 C 11.707031 5.355469 11.550781 5.410156 11.410156 5.410156 C 11.292969 5.410156 11.136719 5.359375 10.933594 5.257812 C 10.605469 5.085938 10.242188 4.949219 9.84375 4.855469 C 9.445312 4.757812 9.089844 4.710938 8.773438 4.714844 C 8.210938 4.71875 7.75 4.847656 7.390625 5.09375 C 7.027344 5.34375 6.851562 5.644531 6.851562 5.992188 C 6.855469 6.367188 7.082031 6.679688 7.535156 6.925781 C 7.988281 7.175781 8.800781 7.433594 9.972656 7.703125 C 10.828125 7.929688 11.464844 8.234375 11.886719 8.609375 C 12.304688 8.984375 12.515625 9.546875 12.523438 10.296875 C 12.527344 11.011719 12.339844 11.683594 11.960938 12.3125 C 11.578125 12.941406 11.046875 13.445312 10.359375 13.824219 C 9.671875 14.207031 8.882812 14.398438 7.996094 14.40625 Z M 7.996094 14.40625 "/>
</g>
</svg>
